<svg width="16" height="16" viewBox="0 0 16 16" fill="none" xmlns="http://www.w3.org/2000/svg">
  <path fill-rule="evenodd" clip-rule="evenodd"
    d="M7.99988 2.88013C6.58548 2.88013 5.43988 4.02573 5.43988 5.44013C5.43988 6.85453 6.58548 8.00013 7.99988 8.00013C9.41428 8.00013 10.5599 6.85453 10.5599 5.44013C10.5599 4.02573 9.41428 2.88013 7.99988 2.88013ZM9.34388 5.44013C9.34388 4.69773 8.74228 4.09613 7.99988 4.09613C7.25748 4.09613 6.65588 4.69773 6.65588 5.44013C6.65588 6.18253 7.25748 6.78413 7.99988 6.78413C8.74228 6.78413 9.34388 6.18253 9.34388 5.44013ZM11.9039 11.2001C11.9039 10.7905 9.90069 9.85612 7.99989 9.85612C6.09909 9.85612 4.09589 10.7905 4.09589 11.2001V11.9041H11.9039V11.2001ZM2.87988 11.2001C2.87988 9.49774 6.29108 8.64014 7.99988 8.64014C9.70868 8.64014 13.1199 9.49774 13.1199 11.2001V13.1201H2.87988V11.2001Z"
    fill="#1471EB" />
</svg>
