<svg width="346" height="150" viewBox="0 0 346 150" fill="none" xmlns="http://www.w3.org/2000/svg">
<g filter="url(#filter0_d)">
<path opacity="0.3" fill-rule="evenodd" clip-rule="evenodd" d="M113.378 44.9217L104.471 51.611L82.161 29.3015L113.378 44.9217Z" fill="#FF7092"/>
<path opacity="0.6" fill-rule="evenodd" clip-rule="evenodd" d="M70.1464 24L98.5166 52.3702H41.7761L70.1464 24Z" fill="#FF7092"/>
<path opacity="0.3" fill-rule="evenodd" clip-rule="evenodd" d="M58.1316 29.3015L35.834 51.611L26.9137 44.9217L58.1316 29.3015Z" fill="#FF7092"/>
<path opacity="0.3" fill-rule="evenodd" clip-rule="evenodd" d="M24.78 49.251L33.3196 55.6556V55.6675L24.78 85.544V49.251Z" fill="#FF7092"/>
<path opacity="0.6" fill-rule="evenodd" clip-rule="evenodd" d="M28.2907 90.5134L36.854 60.5183L36.8671 60.5302L65.4259 106.229L25.4324 100.512L28.2907 90.5134Z" fill="#FF7092"/>
<path opacity="0.3" fill-rule="evenodd" clip-rule="evenodd" d="M67.7742 125.668L34.3751 106.584L67.7742 111.352V125.668Z" fill="#FF7092"/>
<path fill-rule="evenodd" clip-rule="evenodd" d="M70.1463 104.817L54.8345 80.3254L40.3291 57.1145H99.9635L70.1463 104.817Z" fill="#FF7092"/>
<path opacity="0.3" fill-rule="evenodd" clip-rule="evenodd" d="M72.5184 125.668V111.352L105.917 106.583L72.5184 125.668Z" fill="#FF7092"/>
<path opacity="0.6" fill-rule="evenodd" clip-rule="evenodd" d="M74.8668 106.229L103.427 60.5303L112.951 93.8463L114.86 100.512L74.8668 106.229Z" fill="#FF7092"/>
<path opacity="0.3" fill-rule="evenodd" clip-rule="evenodd" d="M115.513 85.544L106.973 55.6675V55.6556L115.513 49.251V85.544Z" fill="#FF7092"/>
</g>
<path d="M158.704 62.016V72.152H171.864V78.2H158.704V88.784H173.544V95H150.864V55.856H173.544V62.016H158.704ZM195.689 95L189.305 85.368L183.649 95H175.249L185.385 79.432L175.137 63.976H183.985L190.313 73.552L196.025 63.976H204.425L194.233 79.432L204.537 95H195.689ZM214.52 68.456C215.528 67.0373 216.909 65.8613 218.664 64.928C220.456 63.9573 222.49 63.472 224.768 63.472C227.418 63.472 229.808 64.1253 231.936 65.432C234.101 66.7387 235.8 68.6053 237.032 71.032C238.301 73.4213 238.936 76.2027 238.936 79.376C238.936 82.5493 238.301 85.368 237.032 87.832C235.8 90.2587 234.101 92.144 231.936 93.488C229.808 94.832 227.418 95.504 224.768 95.504C222.49 95.504 220.474 95.0373 218.72 94.104C217.002 93.1707 215.602 91.9947 214.52 90.576V109.784H206.68V63.976H214.52V68.456ZM230.928 79.376C230.928 77.5093 230.536 75.904 229.752 74.56C229.005 73.1787 227.997 72.1333 226.728 71.424C225.496 70.7147 224.152 70.36 222.696 70.36C221.277 70.36 219.933 70.7333 218.664 71.48C217.432 72.1893 216.424 73.2347 215.64 74.616C214.893 75.9973 214.52 77.6213 214.52 79.488C214.52 81.3547 214.893 82.9787 215.64 84.36C216.424 85.7413 217.432 86.8053 218.664 87.552C219.933 88.2613 221.277 88.616 222.696 88.616C224.152 88.616 225.496 88.2427 226.728 87.496C227.997 86.7493 229.005 85.6853 229.752 84.304C230.536 82.9227 230.928 81.28 230.928 79.376ZM240.501 79.376C240.501 76.24 241.117 73.4587 242.349 71.032C243.619 68.6053 245.317 66.7387 247.445 65.432C249.611 64.1253 252.019 63.472 254.669 63.472C256.984 63.472 259 63.9387 260.717 64.872C262.472 65.8053 263.872 66.9813 264.917 68.4V63.976H272.813V95H264.917V90.464C263.909 91.92 262.509 93.1333 260.717 94.104C258.963 95.0373 256.928 95.504 254.613 95.504C252 95.504 249.611 94.832 247.445 93.488C245.317 92.144 243.619 90.2587 242.349 87.832C241.117 85.368 240.501 82.5493 240.501 79.376ZM264.917 79.488C264.917 77.584 264.544 75.96 263.797 74.616C263.051 73.2347 262.043 72.1893 260.773 71.48C259.504 70.7333 258.141 70.36 256.685 70.36C255.229 70.36 253.885 70.7147 252.653 71.424C251.421 72.1333 250.413 73.1787 249.629 74.56C248.883 75.904 248.509 77.5093 248.509 79.376C248.509 81.2427 248.883 82.8853 249.629 84.304C250.413 85.6853 251.421 86.7493 252.653 87.496C253.923 88.2427 255.267 88.616 256.685 88.616C258.141 88.616 259.504 88.2613 260.773 87.552C262.043 86.8053 263.051 85.76 263.797 84.416C264.544 83.0347 264.917 81.392 264.917 79.488ZM295.547 63.528C299.243 63.528 302.23 64.704 304.507 67.056C306.784 69.3707 307.923 72.6187 307.923 76.8V95H300.083V77.864C300.083 75.4 299.467 73.5147 298.235 72.208C297.003 70.864 295.323 70.192 293.195 70.192C291.03 70.192 289.312 70.864 288.043 72.208C286.811 73.5147 286.195 75.4 286.195 77.864V95H278.355V63.976H286.195V67.84C287.24 66.496 288.566 65.4507 290.171 64.704C291.814 63.92 293.606 63.528 295.547 63.528ZM311.247 79.376C311.247 76.24 311.863 73.4587 313.095 71.032C314.364 68.6053 316.081 66.7387 318.247 65.432C320.412 64.1253 322.82 63.472 325.471 63.472C327.487 63.472 329.409 63.92 331.239 64.816C333.068 65.6747 334.524 66.832 335.607 68.288V53.56H343.559V95H335.607V90.408C334.636 91.9387 333.273 93.1707 331.519 94.104C329.764 95.0373 327.729 95.504 325.415 95.504C322.801 95.504 320.412 94.832 318.247 93.488C316.081 92.144 314.364 90.2587 313.095 87.832C311.863 85.368 311.247 82.5493 311.247 79.376ZM335.663 79.488C335.663 77.584 335.289 75.96 334.543 74.616C333.796 73.2347 332.788 72.1893 331.519 71.48C330.249 70.7333 328.887 70.36 327.431 70.36C325.975 70.36 324.631 70.7147 323.399 71.424C322.167 72.1333 321.159 73.1787 320.375 74.56C319.628 75.904 319.255 77.5093 319.255 79.376C319.255 81.2427 319.628 82.8853 320.375 84.304C321.159 85.6853 322.167 86.7493 323.399 87.496C324.668 88.2427 326.012 88.616 327.431 88.616C328.887 88.616 330.249 88.2613 331.519 87.552C332.788 86.8053 333.796 85.76 334.543 84.416C335.289 83.0347 335.663 81.392 335.663 79.488Z" fill="#FF7092"/>
<defs>
<filter id="filter0_d" x="-5" y="0" width="150" height="150" filterUnits="userSpaceOnUse" color-interpolation-filters="sRGB">
<feFlood flood-opacity="0" result="BackgroundImageFix"/>
<feColorMatrix in="SourceAlpha" type="matrix" values="0 0 0 0 0 0 0 0 0 0 0 0 0 0 0 0 0 0 127 0"/>
<feOffset/>
<feGaussianBlur stdDeviation="12"/>
<feColorMatrix type="matrix" values="0 0 0 0 1 0 0 0 0 0.439216 0 0 0 0 0.573602 0 0 0 0.212211 0"/>
<feBlend mode="normal" in2="BackgroundImageFix" result="effect1_dropShadow"/>
<feBlend mode="normal" in="SourceGraphic" in2="effect1_dropShadow" result="shape"/>
</filter>
</defs>
</svg>
