
<svg width="116px" height="42px" viewBox="0 0 116 42" version="1.1" xmlns="http://www.w3.org/2000/svg" xmlns:xlink="http://www.w3.org/1999/xlink">
    <!-- Generator: Sketch 46.2 (44496) - http://www.bohemiancoding.com/sketch -->
    <desc>Created with Sketch.</desc>
    <defs></defs>
    <g id="Dashboard" stroke="none" stroke-width="1" fill="none" fill-rule="evenodd">
        <g id="Jobs" transform="translate(-26.000000, -19.000000)" fill="#FF7092">
            <g id="Sidebar">
                <g id="Logo-+-Mark" transform="translate(24.000000, 15.000000)">
                    <g id="Logo" transform="translate(0.000000, 4.189944)" stroke-width="1">
                        <g transform="translate(2.380000, 0.000000)" id="Path">
                            <polygon opacity="0.3" points="36.4813953 8.61488372 32.8137209 11.3693023 23.6274419 2.18302326"></polygon>
                            <polygon opacity="0.6" points="18.6802326 0 30.362093 11.6818605 6.99837209 11.6818605"></polygon>
                            <polygon opacity="0.3" points="13.7330233 2.18302326 4.55162791 11.3693023 0.878581395 8.61488372"></polygon>
                            <polygon opacity="0.3" points="0 10.3974419 3.51627907 13.0346512 3.51627907 13.0395349 0 25.3416279"></polygon>
                            <polygon opacity="0.6" points="1.4455814 27.387907 4.97162791 15.0369767 4.977 15.0418605 16.7365116 33.8588372 0.268604651 31.5048837"></polygon>
                            <polygon opacity="0.3" points="17.7034884 41.8632558 3.95093023 34.0053488 17.7034884 35.9686047"></polygon>
                            <polygon points="18.6802326 33.2776744 12.3753488 23.1927907 6.40255814 13.6353488 30.957907 13.6353488"></polygon>
                            <polygon opacity="0.3" points="19.6569767 41.8632558 19.6569767 35.9686047 33.4095349 34.0048605"></polygon>
                            <polygon opacity="0.6" points="20.6239535 33.8588372 32.3839535 15.0418605 36.3055814 28.7602326 37.0918605 31.5048837"></polygon>
                            <polygon opacity="0.3" points="37.3604651 25.3416279 33.844186 13.0395349 33.844186 13.0346512 37.3604651 10.3974419"></polygon>
                        </g>
                    </g>
                    <path d="M64.4084,17.6377095 C65.7729402,18.6546606 66.6478381,20.0279243 67.03312,21.7575419 L63.46928,21.7575419 C63.1321583,20.988823 62.5983903,20.3762593 61.86796,19.9198324 C61.1375297,19.4634055 60.2746716,19.2351955 59.27936,19.2351955 C58.3001018,19.2351955 57.4332304,19.4594019 56.67872,19.9078212 C55.9242096,20.3562406 55.3382688,20.9968301 54.92088,21.8296089 C54.5034912,22.6623878 54.2948,23.6392868 54.2948,24.7603352 C54.2948,26.5379977 54.7723819,27.9232725 55.72756,28.9162011 C56.6827381,29.9091297 57.9870584,30.4055866 59.64056,30.4055866 C60.8606194,30.4055866 61.908089,30.045255 62.783,29.324581 C63.657911,28.603907 64.2237854,27.6029859 64.48064,26.3217877 L58.72552,26.3217877 L58.72552,23.8955307 L67.32208,23.8955307 L67.32208,27.1625698 C67.0812788,28.2836183 66.6117235,29.3165688 65.9134,30.2614525 C65.2150765,31.2063362 64.3000457,31.9630325 63.16828,32.5315642 C62.0365143,33.100096 60.7402206,33.3843575 59.27936,33.3843575 C57.609805,33.3843575 56.1369264,33.0200223 54.86068,32.2913408 C53.5844336,31.5626593 52.5971635,30.5457235 51.89884,29.2405028 C51.2005165,27.9352821 50.85136,26.4419078 50.85136,24.7603352 C50.85136,23.0787625 51.2005165,21.5853883 51.89884,20.2801676 C52.5971635,18.9749469 53.5804203,17.9540074 54.84864,17.2173184 C56.1168597,16.4806295 57.585725,16.1122905 59.25528,16.1122905 C61.3261704,16.1122905 63.0438598,16.6207584 64.4084,17.6377095 Z M81.3901511,27.2346369 L71.6136711,27.2346369 C71.6618313,28.4197452 71.9828948,29.2925484 72.5768711,29.8530726 C73.1708474,30.4135968 73.9092933,30.6938547 74.7922311,30.6938547 C75.5788484,30.6938547 76.2330151,30.5016779 76.7547511,30.1173184 C77.276487,29.732959 77.6095904,29.21248 77.7540711,28.5558659 L81.3419911,28.5558659 C81.1654035,29.4847346 80.788154,30.317501 80.2102311,31.0541899 C79.6323082,31.7908789 78.889849,32.3674095 77.9828311,32.7837989 C77.0758132,33.2001883 76.0684766,33.4083799 74.9607911,33.4083799 C73.6604646,33.4083799 72.5046361,33.1321257 71.4932711,32.5796089 C70.481906,32.0270922 69.6953006,31.2383664 69.1334311,30.2134078 C68.5715616,29.1884493 68.2906311,27.9793366 68.2906311,26.5860335 C68.2906311,25.1927305 68.5715616,23.9796141 69.1334311,22.946648 C69.6953006,21.913682 70.481906,21.1249562 71.4932711,20.5804469 C72.5046361,20.0359377 73.6604646,19.7636872 74.9607911,19.7636872 C76.277171,19.7636872 77.4289862,20.0359377 78.4162711,20.5804469 C79.403556,21.1249562 80.1660817,21.8736451 80.7038711,22.8265363 C81.2416604,23.7794275 81.5105511,24.8644259 81.5105511,26.0815642 C81.5105511,26.4178788 81.4704182,26.8022325 81.3901511,27.2346369 Z M77.2363511,23.2709497 C76.6182947,22.7104255 75.8597823,22.4301676 74.9607911,22.4301676 C74.0457465,22.4301676 73.2751942,22.7104255 72.6491111,23.2709497 C72.023028,23.8314739 71.6778847,24.6562329 71.6136711,25.7452514 L78.0911911,25.7452514 C78.1393513,24.6562329 77.8544075,23.8314739 77.2363511,23.2709497 Z M103.826022,21.2410615 C104.765147,22.2419976 105.234702,23.6633055 105.234702,25.5050279 L105.234702,33.2402235 L101.863502,33.2402235 L101.863502,25.8893855 C101.863502,24.8644269 101.602638,24.0757011 101.080902,23.5231844 C100.559166,22.9706676 99.8407868,22.6944134 98.9257422,22.6944134 C97.9785908,22.6944134 97.2240917,22.9906861 96.6622222,23.5832402 C96.1003527,24.1757944 95.8194222,25.0405902 95.8194222,26.1776536 L95.8194222,33.2402235 L92.4482222,33.2402235 L92.4482222,25.8893855 C92.4482222,24.8644269 92.1873581,24.0757011 91.6656222,23.5231844 C91.1438862,22.9706676 90.4255068,22.6944134 89.5104622,22.6944134 C88.5633108,22.6944134 87.8088117,22.9906861 87.2469422,23.5832402 C86.6850727,24.1757944 86.4041422,25.0405902 86.4041422,26.1776536 L86.4041422,33.2402235 L83.0088622,33.2402235 L83.0088622,19.9318436 L86.4041422,19.9318436 L86.4041422,22.4541899 C86.7573173,21.5893812 87.315165,20.9207659 88.0777022,20.448324 C88.8402393,19.9758822 89.7271771,19.7396648 90.7385422,19.7396648 C91.8141209,19.7396648 92.7492182,19.9959006 93.5438622,20.5083799 C94.3385062,21.0208592 94.9364868,21.7575371 95.3378222,22.7184358 C95.7552109,21.805582 96.3772714,21.0809152 97.2040222,20.5444134 C98.030773,20.0079117 98.9578437,19.7396648 99.9852622,19.7396648 C101.606657,19.7396648 102.886897,20.2401253 103.826022,21.2410615 Z M115.811173,20.9888268 C116.790431,21.8055907 117.400452,22.8945928 117.641253,24.2558659 L114.462693,24.2558659 C114.334266,23.6152668 114.045309,23.1027952 113.595813,22.7184358 C113.146318,22.3340763 112.560377,22.1418994 111.837973,22.1418994 C111.26005,22.1418994 110.810562,22.2780247 110.489493,22.5502793 C110.168425,22.8225339 110.007893,23.1908729 110.007893,23.6553073 C110.007893,24.0236517 110.136319,24.3199244 110.393173,24.5441341 C110.650028,24.7683438 110.971091,24.9445059 111.356373,25.0726257 C111.741655,25.2007455 112.29549,25.3528855 113.017893,25.5290503 C114.029258,25.75326 114.851983,25.9894773 115.486093,26.2377095 C116.120203,26.4859417 116.666011,26.8783027 117.123533,27.4148045 C117.581056,27.9513062 117.809813,28.6759731 117.809813,29.5888268 C117.809813,30.7258902 117.364338,31.6467376 116.473373,32.3513966 C115.582409,33.0560557 114.382434,33.4083799 112.873413,33.4083799 C111.139645,33.4083799 109.751045,33.0200225 108.707573,32.2432961 C107.664101,31.4665697 107.030001,30.3575491 106.805253,28.9162011 L110.056053,28.9162011 C110.13632,29.5728152 110.425277,30.0892905 110.922933,30.4656425 C111.420589,30.8419944 112.070743,31.0301676 112.873413,31.0301676 C113.451336,31.0301676 113.892798,30.8900386 114.197813,30.6097765 C114.502828,30.3295144 114.655333,29.9651792 114.655333,29.5167598 C114.655333,29.1324003 114.522895,28.8201129 114.258013,28.5798883 C113.993132,28.3396636 113.664042,28.1554941 113.270733,28.0273743 C112.877425,27.8992545 112.319577,27.7471145 111.597173,27.5709497 C110.601862,27.34674 109.79519,27.11853 109.177133,26.8863128 C108.559077,26.6540957 108.029322,26.281753 107.587853,25.7692737 C107.146384,25.2567945 106.925653,24.552146 106.925653,23.6553073 C106.925653,22.5022289 107.367116,21.5653667 108.250053,20.8446927 C109.132991,20.1240187 110.353032,19.7636872 111.910213,19.7636872 C113.531608,19.7636872 114.831915,20.172063 115.811173,20.9888268 Z" id="Gems"></path>
                </g>
            </g>
        </g>
    </g>
</svg>
