<svg width="24" height="21" viewBox="0 0 24 21" fill="none" xmlns="http://www.w3.org/2000/svg">
  <path
    d="M20.25 0L24 6.5625H19.7917L16.9167 0H20.25ZM14.9167 0L17.7917 6.5625H6.20833L9.08333 0H14.9167ZM3.75 0H7.08333L4.20833 6.5625H0L3.75 0ZM0 7.875H4.20833L9.33333 18.2109C9.36111 18.2656 9.33333 18.3203 9.25 18.375C9.19444 18.4023 9.15278 18.3887 9.125 18.334L0 7.875ZM6.16667 7.875H17.8333L12.125 20.918C12.0972 20.9727 12.0556 21 12 21C11.9444 21 11.9028 20.9727 11.875 20.918L6.16667 7.875ZM14.6667 18.2109L19.7917 7.875H24L14.875 18.334C14.8472 18.3887 14.7917 18.4023 14.7083 18.375C14.6528 18.3203 14.6389 18.2656 14.6667 18.2109Z"
   />
</svg>
