<svg width="18" height="16" viewBox="0 0 18 16"  xmlns="http://www.w3.org/2000/svg">
  <path d="M14.6758 0.875L17.3125 5.5625H14.3535L12.332 0.875H14.6758ZM10.9258 0.875L12.9473 5.5625H4.80273L6.85352 0.875H10.9258ZM3.10352 0.875H5.41797L3.39648 5.5625H0.4375L3.10352 0.875ZM0.4375 6.5H3.39648L7 13.8828C7.01953 13.9219 7 13.9609 6.94141 14C6.90234 14.0195 6.87305 14.0098 6.85352 13.9707L0.4375 6.5ZM4.77344 6.5H12.9766L8.96289 15.8164C8.94336 15.8555 8.91406 15.875 8.875 15.875C8.83594 15.875 8.80664 15.8555 8.78711 15.8164L4.77344 6.5ZM10.75 13.8828L14.3535 6.5H17.3125L10.8965 13.9707C10.877 14.0098 10.8379 14.0195 10.7793 14C10.7402 13.9609 10.7305 13.9219 10.75 13.8828Z"
    />
</svg>
